<svg version="1.1" id="Layer_1" xmlns:x="ns_extend;" xmlns:i="ns_ai;" xmlns:graph="ns_graphs;" xmlns="http://www.w3.org/2000/svg" xmlns:xlink="http://www.w3.org/1999/xlink" x="0px" y="0px" viewBox="0 0 59.1 100" style="enable-background:new 0 0 59.1 100;" xml:space="preserve">
 <style type="text/css">
  .st0{fill:#6D1ED4;}
 </style>
 <metadata>
  <sfw xmlns="ns_sfw;">
   <slices>
   </slices>
   <sliceSourceBounds bottomLeftOrigin="true" height="100" width="59.1" x="0" y="0">
   </sliceSourceBounds>
  </sfw>
 </metadata>
 <g>
  <path class="st0" d="M58.7,83.4c-0.1-0.1-0.1-0.1-0.2-0.2l-0.1-0.1c-2.7-2.8-4.8-6.1-6.4-9.8c-0.2-0.6-0.8-1-1.4-1h-1.3h-5.8H20.6
		l36.6-46.9c0.2-0.3,0.3-0.6,0.3-1v-9.1c0-0.9-0.7-1.6-1.6-1.6H38.8h-0.7h-2V0.8c0-0.4-0.4-0.8-0.8-0.8H35h-0.3H23.9h-0.4h-0.3
		c-0.4,0-0.8,0.4-0.8,0.8v13.1h-2.8H19H3.1c-0.9,0-1.6,0.7-1.6,1.6V26c0,0.9,0.7,1.6,1.6,1.6h33.6L0.3,74C0.1,74.3,0,74.7,0,75v9.5
		c0,0.9,0.7,1.6,1.6,1.6h20.9v13.1c0,0.4,0.4,0.8,0.8,0.8h0.3H24h10.8H35h0.4c0.4,0,0.8-0.4,0.8-0.8V86.1H45h11.3h1.3
		c0.6,0,1.2-0.4,1.4-1C59.3,84.6,59.1,83.9,58.7,83.4">
  </path>
 </g>
</svg>